# xmcd
#
# Track frame offsets:
#	182
#	12130
#	27767
#	40417
#	58627
#	68810
#	81155
#	99335
#	113227
#	130015
#	138190
#	152552
#	168727
#	191207
#	202585
#	217220
#	226590
#	246940
#
# Disc length: 3455 seconds
#
# Revision: 6
# Processed by: cddbd v1.5.2PL0 Copyright (c) Steve Scherf et al.
# Submitted via: EasyCDDAExtractor 16.0.6.1
#
DISCID=ed0d7d12
DTITLE=Ike and Tina Turner - Jazz and Blues Collection - Ike and Tina Turner - Cd 5
DYEAR=1996
DGENRE=Blues
TTITLE0=I Need A Man
TTITLE1=Come Togeher
TTITLE2=Put On Your Tigh Pants
TTITLE3=I Idolise You
TTITLE4=Shake A Tailfeather
TTITLE5=I'm Movin' On
TTITLE6=She Belong To Me
TTITLE7=Sweet Rhode Island Red
TTITLE8=Give It To Me
TTITLE9=My Babe
TTITLE10=Keep You Guessing
TTITLE11=Golden Empire
TTITLE12=I Gotta Man
TTITLE13=Keep On Using Me
TTITLE14=If You Can Hully Gully
TTITLE15=Ain't Nobody's Business
TTITLE16=Give Me A Chance
TTITLE17=Gimme Me Some Lovin'
EXTD=YEAR: 1996
EXTT0=
EXTT1=
EXTT2=
EXTT3=
EXTT4=
EXTT5=
EXTT6=
EXTT7=
EXTT8=
EXTT9=
EXTT10=
EXTT11=
EXTT12=
EXTT13=
EXTT14=
EXTT15=
EXTT16=
EXTT17=
PLAYORDER=
